<svg width="33" height="32" viewBox="0 0 33 32" fill="none" xmlns="http://www.w3.org/2000/svg">
<path d="M11.6543 27C12.2066 27 12.6543 26.5523 12.6543 26C12.6543 25.4477 12.2066 25 11.6543 25C11.102 25 10.6543 25.4477 10.6543 26C10.6543 26.5523 11.102 27 11.6543 27Z" stroke="black" stroke-width="1.5" stroke-linecap="round" stroke-linejoin="round"/>
<path d="M25.6543 27C26.2066 27 26.6543 26.5523 26.6543 26C26.6543 25.4477 26.2066 25 25.6543 25C25.102 25 24.6543 25.4477 24.6543 26C24.6543 26.5523 25.102 27 25.6543 27Z" stroke="black" stroke-width="1.5" stroke-linecap="round" stroke-linejoin="round"/>
<path d="M3.6543 5H7.6543L10.6543 22H26.6543" stroke="black" stroke-width="1.5" stroke-linecap="round" stroke-linejoin="round"/>
<path d="M10.6543 16.6667H26.2443C26.3599 16.6668 26.472 16.6268 26.5615 16.5535C26.6509 16.4802 26.7122 16.3782 26.7349 16.2648L28.5349 7.26481C28.5494 7.19224 28.5477 7.11735 28.5297 7.04554C28.5118 6.97374 28.4782 6.90681 28.4312 6.84958C28.3843 6.79236 28.3252 6.74627 28.2583 6.71464C28.1914 6.68301 28.1183 6.66664 28.0443 6.66669H8.6543" stroke="black" stroke-width="1.5" stroke-linecap="round" stroke-linejoin="round"/>
</svg>
