<svg width="41" height="40" viewBox="0 0 41 40" fill="none" xmlns="http://www.w3.org/2000/svg">
<g clip-path="url(#clip0_605_24369)">
<path d="M13.987 24.9998C13.987 23.1589 12.4946 21.6665 10.6536 21.6665C8.8127 21.6665 7.32031 23.1589 7.32031 24.9998V28.3332C7.32031 30.1741 8.8127 31.6665 10.6536 31.6665C12.4946 31.6665 13.987 30.1741 13.987 28.3332V24.9998Z" stroke="white" stroke-width="2" stroke-linecap="round" stroke-linejoin="round"/>
<path d="M33.987 24.9998C33.987 23.1589 32.4946 21.6665 30.6536 21.6665C28.8127 21.6665 27.3203 23.1589 27.3203 24.9998V28.3332C27.3203 30.1741 28.8127 31.6665 30.6536 31.6665C32.4946 31.6665 33.987 30.1741 33.987 28.3332V24.9998Z" stroke="white" stroke-width="2" stroke-linecap="round" stroke-linejoin="round"/>
<path d="M7.32031 24.9998V19.9998C7.32031 16.4636 8.72507 13.0722 11.2256 10.5717C13.726 8.07126 17.1174 6.6665 20.6536 6.6665C24.1899 6.6665 27.5813 8.07126 30.0817 10.5717C32.5822 13.0722 33.987 16.4636 33.987 19.9998V24.9998" stroke="white" stroke-width="2" stroke-linecap="round" stroke-linejoin="round"/>
<path d="M30.6543 31.6665C30.6543 32.9926 29.6007 34.2644 27.7254 35.202C25.85 36.1397 23.3065 36.6665 20.6543 36.6665" stroke="white" stroke-width="2" stroke-linecap="round" stroke-linejoin="round"/>
</g>
<defs>
<clipPath id="clip0_605_24369">
<rect width="40" height="40" fill="white" transform="translate(0.654297)"/>
</clipPath>
</defs>
</svg>
