<svg width="25" height="24" viewBox="0 0 25 24" fill="none" xmlns="http://www.w3.org/2000/svg">
<path d="M8.4043 20.25C8.81851 20.25 9.1543 19.9142 9.1543 19.5C9.1543 19.0858 8.81851 18.75 8.4043 18.75C7.99008 18.75 7.6543 19.0858 7.6543 19.5C7.6543 19.9142 7.99008 20.25 8.4043 20.25Z" stroke="white" stroke-width="1.5" stroke-linecap="round" stroke-linejoin="round"/>
<path d="M18.9043 20.25C19.3185 20.25 19.6543 19.9142 19.6543 19.5C19.6543 19.0858 19.3185 18.75 18.9043 18.75C18.4901 18.75 18.1543 19.0858 18.1543 19.5C18.1543 19.9142 18.4901 20.25 18.9043 20.25Z" stroke="white" stroke-width="1.5" stroke-linecap="round" stroke-linejoin="round"/>
<path d="M2.4043 3.75H5.4043L7.6543 16.5H19.6543" stroke="white" stroke-width="1.5" stroke-linecap="round" stroke-linejoin="round"/>
<path d="M7.6543 12.5H19.3468C19.4335 12.5001 19.5176 12.4701 19.5847 12.4151C19.6518 12.3601 19.6977 12.2836 19.7148 12.1986L21.0648 5.44859C21.0757 5.39417 21.0743 5.338 21.0609 5.28414C21.0474 5.23029 21.0222 5.18009 20.987 5.13717C20.9518 5.09426 20.9075 5.05969 20.8573 5.03597C20.8071 5.01225 20.7523 4.99996 20.6968 5H6.1543" stroke="white" stroke-width="1.5" stroke-linecap="round" stroke-linejoin="round"/>
</svg>
