<svg width="41" height="40" viewBox="0 0 41 40" fill="none" xmlns="http://www.w3.org/2000/svg">
<path d="M8.75275 30.5992L8.75252 30.5991C7.87979 29.9483 7.07918 28.9206 6.49638 27.759C5.91354 26.5973 5.57031 25.3451 5.57031 24.2666V11.8666C5.57031 9.50736 7.32514 6.96177 9.54481 6.13513L9.54577 6.13477L17.862 3.01826C17.8621 3.01823 17.8622 3.0182 17.8623 3.01817C18.6158 2.73661 19.6152 2.5874 20.637 2.5874C21.6587 2.5874 22.6582 2.73661 23.4117 3.01817C23.4118 3.0182 23.4119 3.01823 23.4119 3.01826L31.7282 6.13477L31.7291 6.13513C33.9488 6.96177 35.7036 9.50736 35.7036 11.8666V24.2499C35.7036 25.3371 35.3603 26.5892 34.7777 27.7483C34.1952 28.9073 33.3947 29.9313 32.5214 30.5824L32.5212 30.5826L25.3545 35.9326L25.3545 35.9325L25.3483 35.9373C24.0656 36.9264 22.3777 37.4332 20.6536 37.4332C18.931 37.4332 17.2388 36.927 15.9185 35.9486C15.9184 35.9484 15.9182 35.9483 15.918 35.9482L8.75275 30.5992ZM18.3955 4.43145L18.3949 4.4317L10.0782 7.54837L10.0775 7.54863C9.2499 7.86019 8.50867 8.52248 7.97775 9.29061C7.44665 10.059 7.08698 10.9898 7.08698 11.8832V24.2666C7.08698 25.161 7.39756 26.1892 7.85456 27.101C8.31145 28.0126 8.94693 28.8722 9.6545 29.4005L9.65454 29.4006L16.8209 34.7503C17.8829 35.5445 19.2819 35.9249 20.6557 35.9249C22.0297 35.9249 23.4319 35.5445 24.5014 34.7516L24.5027 34.7506L31.6694 29.4006L31.6703 29.3999C32.3851 28.8638 33.0205 28.005 33.4759 27.0943C33.9312 26.1837 34.237 25.16 34.237 24.2666V11.8666C34.237 10.9804 33.8766 10.0538 33.3462 9.28645C32.8157 8.51889 32.0759 7.85396 31.2513 7.5338L31.2513 7.53376L31.2458 7.5317L22.9291 4.41503L22.9291 4.41495L22.9201 4.41174C22.2819 4.18651 21.4538 4.08314 20.6544 4.08532C19.8557 4.0875 19.0288 4.19514 18.3955 4.43145Z" fill="#FAFAFA" stroke="#FAFAFA"/>
<path d="M18.0678 21.0536L18.4214 21.4071L18.7749 21.0536L25.0582 14.7703C25.3463 14.4822 25.8297 14.4822 26.1178 14.7703C26.4059 15.0583 26.4059 15.5417 26.1178 15.8298L18.9511 22.9965C18.7998 23.1478 18.6126 23.2167 18.4214 23.2167C18.2301 23.2167 18.0429 23.1478 17.8916 22.9965L15.2082 20.3131C14.9202 20.0251 14.9202 19.5417 15.2082 19.2536C15.4963 18.9655 15.9797 18.9655 16.2678 19.2536L18.0678 21.0536Z" fill="#FAFAFA" stroke="#FAFAFA"/>
</svg>
