<svg width="41" height="40" viewBox="0 0 41 40" fill="none" xmlns="http://www.w3.org/2000/svg">
<g clip-path="url(#clip0_605_24352)">
<path d="M11.8216 31.6667C13.6626 31.6667 15.1549 30.1743 15.1549 28.3333C15.1549 26.4924 13.6626 25 11.8216 25C9.98067 25 8.48828 26.4924 8.48828 28.3333C8.48828 30.1743 9.98067 31.6667 11.8216 31.6667Z" stroke="#FAFAFA" stroke-width="2" stroke-linecap="round" stroke-linejoin="round"/>
<path d="M28.4876 31.6667C30.3286 31.6667 31.821 30.1743 31.821 28.3333C31.821 26.4924 30.3286 25 28.4876 25C26.6467 25 25.1543 26.4924 25.1543 28.3333C25.1543 30.1743 26.6467 31.6667 28.4876 31.6667Z" stroke="#FAFAFA" stroke-width="2" stroke-linecap="round" stroke-linejoin="round"/>
<path d="M8.48828 28.3335H7.15495C6.05038 28.3335 5.15495 27.4381 5.15495 26.3335V21.6668M3.48828 8.3335H19.8216C20.9262 8.3335 21.8216 9.22893 21.8216 10.3335V28.3335M15.1549 28.3335H25.155M31.8216 28.3335H33.155C34.2595 28.3335 35.155 27.4381 35.155 26.3335V18.3335M35.155 18.3335H21.8216M35.155 18.3335L30.7376 10.9712C30.3761 10.3688 29.7251 10.0002 29.0226 10.0002H21.8216" stroke="#FAFAFA" stroke-width="2" stroke-linecap="round" stroke-linejoin="round"/>
<path d="M8.1543 28H6.82096C5.71639 28 4.82096 27.1046 4.82096 26V21.3333M3.1543 8H19.4876C20.5922 8 21.4876 8.89543 21.4876 10V28M15.1543 28H24.821M32.1543 28H32.821C33.9255 28 34.821 27.1046 34.821 26V18M34.821 18H21.4876M34.821 18L30.4036 10.6377C30.0421 10.0353 29.3911 9.66667 28.6886 9.66667H21.4876" stroke="#FAFAFA" stroke-width="2" stroke-linecap="round" stroke-linejoin="round"/>
<path d="M5.1543 11.8184H11.821" stroke="#FAFAFA" stroke-width="2" stroke-linecap="round" stroke-linejoin="round"/>
<path d="M1.97266 15.4546H8.63932" stroke="#FAFAFA" stroke-width="2" stroke-linecap="round" stroke-linejoin="round"/>
<path d="M5.1543 19.0908H11.821" stroke="#FAFAFA" stroke-width="2" stroke-linecap="round" stroke-linejoin="round"/>
</g>
<defs>
<clipPath id="clip0_605_24352">
<rect width="40" height="40" fill="white" transform="translate(0.154297)"/>
</clipPath>
</defs>
</svg>
