<svg width="41" height="40" viewBox="0 0 41 40" fill="none" xmlns="http://www.w3.org/2000/svg">
<g clip-path="url(#clip0_11_3600)">
<path d="M33.987 18.3333C33.5794 15.4004 32.2188 12.6828 30.1147 10.5992C28.0107 8.51556 25.2799 7.18153 22.3431 6.80259C19.4063 6.42365 16.4264 7.02081 13.8623 8.50208C11.2983 9.98335 9.29239 12.2666 8.15365 15M7.32031 8.33334V15H13.987" stroke="black" stroke-width="2" stroke-linecap="round" stroke-linejoin="round"/>
<path d="M7.32031 21.6667C7.72791 24.5996 9.08853 27.3172 11.1926 29.4008C13.2966 31.4845 16.0274 32.8185 18.9642 33.1974C21.901 33.5764 24.8809 32.9792 27.445 31.4979C30.009 30.0167 32.0149 27.7334 33.1536 25M33.987 31.6667V25H27.3203" stroke="black" stroke-width="2" stroke-linecap="round" stroke-linejoin="round"/>
</g>
<defs>
<clipPath id="clip0_11_3600">
<rect width="40" height="40" fill="white" transform="translate(0.654297)"/>
</clipPath>
</defs>
</svg>
