<svg width="25" height="24" viewBox="0 0 25 24" fill="none" xmlns="http://www.w3.org/2000/svg">
<path d="M21.9108 10.962C22.3848 11.582 22.3848 12.419 21.9108 13.038C20.4178 14.987 16.8358 19 12.6538 19C8.47182 19 4.88982 14.987 3.39682 13.038C3.1662 12.7411 3.04102 12.3759 3.04102 12C3.04102 11.6241 3.1662 11.2589 3.39682 10.962C4.88982 9.013 8.47182 5 12.6538 5C16.8358 5 20.4178 9.013 21.9108 10.962V10.962Z" stroke="black" stroke-width="1.5" stroke-linecap="round" stroke-linejoin="round"/>
<path d="M12.6543 15C14.3112 15 15.6543 13.6569 15.6543 12C15.6543 10.3431 14.3112 9 12.6543 9C10.9974 9 9.6543 10.3431 9.6543 12C9.6543 13.6569 10.9974 15 12.6543 15Z" stroke="black" stroke-width="1.5" stroke-linecap="round" stroke-linejoin="round"/>
</svg>
